<?xml version="1.0" standalone="no"?>
<!DOCTYPE svg PUBLIC "-//W3C//DTD SVG 20010904//EN"
 "http://www.w3.org/TR/2001/REC-SVG-20010904/DTD/svg10.dtd">
<svg version="1.0" xmlns="http://www.w3.org/2000/svg"
 width="700.000000pt" height="700.000000pt" viewBox="0 0 700.000000 700.000000"
 preserveAspectRatio="xMidYMid meet">
<metadata>
Created by potrace 1.11, written by Peter Selinger 2001-2013
</metadata>
<g transform="translate(0.000000,700.000000) scale(0.100000,-0.100000)"
fill="#000000" stroke="none">
<path d="M3030 6990 c-774 -58 -1360 -194 -1815 -421 -371 -186 -564 -384
-755 -774 -402 -820 -562 -2257 -389 -3493 38 -272 110 -585 185 -808 183
-540 414 -834 823 -1043 469 -240 1122 -388 1936 -441 206 -13 744 -13 950 0
740 48 1349 174 1810 375 241 105 399 207 540 349 180 181 309 409 427 756
371 1091 333 2902 -84 4030 -122 329 -264 570 -442 745 -125 124 -231 199
-411 290 -435 221 -951 353 -1650 421 -195 19 -934 28 -1125 14z m20 -2732
c234 -504 428 -914 431 -910 4 4 202 418 440 919 l434 913 498 0 497 0 0
-1670 0 -1670 -365 0 -365 0 0 1046 c0 575 -4 1043 -8 1040 -5 -3 -208 -415
-453 -915 l-444 -911 -215 0 -215 0 -445 911 c-244 500 -447 912 -452 915 -4
3 -8 -465 -8 -1040 l0 -1046 -380 0 -380 0 0 1670 0 1670 502 -2 502 -3 426
-917z"/>
</g>
</svg>
